<svg width="1280" height="800" viewBox="0 0 1280 800" fill="none" xmlns="http://www.w3.org/2000/svg">
  <defs>
    <linearGradient id="bg" x1="120" y1="40" x2="1160" y2="760" gradientUnits="userSpaceOnUse">
      <stop stop-color="#1F2B13"/>
      <stop offset="1" stop-color="#10120D"/>
    </linearGradient>
  </defs>
  <rect width="1280" height="800" rx="48" fill="url(#bg)"/>
  <rect x="48" y="48" width="1184" height="704" rx="36" fill="#0F130A" fill-opacity="0.18" stroke="#DFFF7C" stroke-opacity="0.35" stroke-width="3"/>
  <text x="92" y="148" fill="#F7FCEB" font-size="66" font-family="Segoe UI, Arial, sans-serif" font-weight="700">Visual Workflow</text>
  <text x="92" y="204" fill="#E8F1D0" font-size="28" font-family="Segoe UI, Arial, sans-serif">Connect desktop visuals to node-oriented local tools.</text>
  <rect x="92" y="246" width="220" height="44" rx="22" fill="#C8FF6A" fill-opacity="0.22" stroke="#C8FF6A"/>
  <text x="202" y="275" text-anchor="middle" fill="#F9FFD0" font-size="22" font-family="Segoe UI, Arial, sans-serif" font-weight="600">Workflow</text>
  <rect x="108" y="354" width="248" height="132" rx="24" fill="#11150C" stroke="#DFFF7C" stroke-width="3"/>
  <text x="152" y="430" fill="#F7FCEB" font-size="36" font-family="Segoe UI, Arial, sans-serif" font-weight="700">Screenshot</text>
  <rect x="510" y="294" width="262" height="160" rx="24" fill="#11150C" stroke="#8CF975" stroke-width="3"/>
  <text x="552" y="384" fill="#F7FCEB" font-size="34" font-family="Segoe UI, Arial, sans-serif" font-weight="700">Translate</text>
  <rect x="896" y="378" width="232" height="138" rx="24" fill="#11150C" stroke="#DFFF7C" stroke-width="3"/>
  <text x="946" y="456" fill="#F7FCEB" font-size="34" font-family="Segoe UI, Arial, sans-serif" font-weight="700">Deliver</text>
  <path d="M356 420H510" stroke="#C6FF6D" stroke-width="8" stroke-linecap="round"/>
  <path d="M772 420H896" stroke="#C6FF6D" stroke-width="8" stroke-linecap="round"/>
  <circle cx="510" cy="420" r="10" fill="#C6FF6D"/>
  <circle cx="896" cy="420" r="10" fill="#C6FF6D"/>
  <text x="150" y="584" fill="#D3DDB9" font-size="24" font-family="Segoe UI, Arial, sans-serif">Talk · Loom · Tea capability bridges</text>
</svg>
